<svg xmlns="http://www.w3.org/2000/svg" width="32" height="32"><path fill="#d11f44" d="M16 17.116h14.88c0-.372.062-.744.062-1.116 0-.434 0-.806-.062-1.24H16v2.356zM16 12.404h14.508c-.186-.806-.496-1.612-.806-2.356H16v2.356z"/><path fill="#fff" d="M16 12.466v2.294h14.88a14.372 14.372 0 00-.372-2.356L16 12.466z"/><path fill="#d11f44" d="M16 7.754h12.4c-.62-.868-1.24-1.674-1.984-2.356H16v2.356z"/><path fill="#fff" d="M16 10.11h13.64a17.463 17.463 0 00-1.302-2.356H16v2.356z"/><path fill="#d11f44" d="M23.254 3.042C21.146 1.802 18.666 1.12 16 1.12v1.922h7.254z"/><path fill="#fff" d="M16 5.398h10.478a13.138 13.138 0 00-3.162-2.356H16v2.356z"/><path fill="#d11f44" d="M16 30.88c2.666 0 5.208-.744 7.378-1.984H8.622c2.17 1.24 4.712 1.984 7.378 1.984zM28.4 24.184H3.6a13.89 13.89 0 001.922 2.356h20.956c.744-.682 1.364-1.488 1.922-2.356z"/><path fill="#fff" d="M23.44 28.896a14.13 14.13 0 003.1-2.356H5.522c.93.93 1.922 1.674 3.1 2.356H23.44z"/><path fill="#d11f44" d="M30.446 19.472H1.554c.186.806.434 1.612.806 2.356h27.342c.31-.744.558-1.55.744-2.356z"/><path fill="#fff" d="M29.702 21.828H2.298c.372.868.806 1.612 1.302 2.356h24.8c.496-.744.93-1.488 1.302-2.356zM30.818 17.116H1.182c.062.806.186 1.612.372 2.356h28.954c.124-.744.248-1.55.31-2.356z"/><path fill="#1e3f77" d="M10.73 2.112c-.124.062-.186.062-.31.124h.248l.062-.124z"/><path fill="#1e3f77" d="M16 17.116V1.12c-1.736 0-3.41.31-4.96.868v.248h.62l-.496.372.186.62-.496-.372-.496.372.186-.62-.372-.248a14.737 14.737 0 00-7.13 6.324H3.6l.186-.558.186.62h.62l-.496.372.186.62-.496-.372-.496.372.186-.558-.496-.372c-.31.496-.558 1.054-.806 1.612h.62l-.434.248.186.62-.496-.372-.062.062c-.31.868-.558 1.736-.682 2.604h.558l.186-.62.186.62h.62l-.496.31.186.62-.496-.372-.496.372.186-.558-.434-.31A14.51 14.51 0 001.12 16c0 .372 0 .744.062 1.116H16zm-1.798-14.88l.186-.62.186.62h.62l-.496.372.186.62-.496-.372-.496.372.186-.62-.496-.372h.62zm0 3.224l.186-.62.186.62h.62l-.496.372.186.558-.496-.372-.496.372.248-.558-.558-.372h.62zm0 3.224l.186-.558.186.62h.62l-.496.372.186.62-.496-.372-.496.372.186-.558-.496-.372h.62zm0 3.224l.186-.558.186.558h.62l-.496.372.186.62-.496-.372-.496.372.248-.62-.496-.372h.558zm0 3.286l.186-.558.186.558h.62l-.496.372.186.62-.496-.372-.496.372.186-.62-.496-.372h.62zM12.466 3.848l.186-.62.186.62h.62l-.496.372.186.62-.496-.372-.496.372.186-.558-.496-.372h.62zm0 3.224l.186-.62.186.62h.62l-.496.372.186.62-.496-.372-.496.372.186-.62-.496-.372h.62zm0 3.224l.186-.62.186.62h.62l-.496.372.186.62-.496-.372-.496.372.186-.62-.496-.372h.62zm0 3.224l.186-.62.186.62h.62l-.496.372.186.62-.496-.372-.496.372.186-.558-.496-.434h.62zM10.73 5.46l.186-.62.124.62h.62l-.496.372.186.558-.496-.372-.496.372.186-.558-.496-.372h.682zm0 3.224l.186-.558.186.62h.62l-.496.372.186.62-.496-.372-.496.372.186-.558-.496-.372h.62zm0 3.224l.186-.558.186.558h.62l-.496.372.186.62-.496-.372-.558.372.186-.558-.496-.372h.682zm0 3.286l.186-.558.186.558h.62l-.496.372.186.62-.496-.372-.496.372.186-.62-.496-.372h.62zM8.932 3.848l.186-.62.186.62h.62l-.496.372.186.62-.496-.372-.496.372.186-.558-.496-.372h.62zm0 3.224l.186-.62.186.62h.62l-.496.372.186.62-.496-.372-.496.372.186-.62-.496-.372h.62zm0 3.224l.186-.62.186.62h.62l-.496.372.186.62-.496-.372-.496.372.186-.62-.496-.372h.62zm0 3.224l.186-.62.186.62h.62l-.496.372.186.62-.496-.372-.496.372.186-.558-.496-.434h.62zM7.134 5.46l.186-.62.186.62h.62l-.496.372.186.558-.496-.372-.496.372.186-.558-.496-.372h.62zm0 3.224l.186-.558.186.62h.62l-.496.372.186.62-.496-.434-.496.372.186-.558-.496-.372h.62zm0 3.224l.186-.558.186.558h.62l-.496.372.186.62-.496-.372-.496.372.186-.558-.496-.372h.62zm0 3.286l.186-.558.186.558h.62l-.496.372.186.62-.496-.434-.496.372.186-.62-.496-.372h.62zM5.398 7.072l.186-.62.186.62h.62l-.496.372.186.62-.496-.372-.496.372.186-.62-.496-.372h.62zm0 3.224l.186-.62.186.62h.62l-.496.372.186.62-.496-.372-.496.372.186-.62-.496-.372h.62zm0 3.224l.186-.62.186.62h.62l-.496.372.186.62-.496-.372-.496.372.186-.558-.496-.434h.62zM3.6 11.908l.186-.558.186.558h.62l-.434.372.186.62-.496-.372-.558.372.248-.62-.558-.372h.62zm0 3.286l.186-.558.186.558h.62l-.496.372.186.62-.496-.372-.496.372.186-.62-.496-.372h.62z"/><path fill="#fff" d="M10.358 3.166l.496-.372.496.372-.186-.62.496-.372h-.62l-.062-.248c-.062.062-.186.062-.248.124l-.062.124h-.248c-.062 0-.124.062-.248.062l.372.248-.186.682zM13.892 3.166l.558-.372.496.372-.248-.62.558-.31h-.62l-.186-.62-.248.62h-.62l.558.31zM6.824 6.39l.496-.372.558.372-.248-.558.558-.372h-.62l-.248-.62-.186.62h-.62l.558.372zM10.358 6.39l.496-.372.496.372-.124-.558.496-.372h-.682l-.186-.62-.124.62h-.682l.496.372zM13.892 6.39l.558-.372.496.372-.248-.558.558-.372h-.62l-.186-.62-.248.62h-.62l.558.372zM3.29 9.614l.496-.372.496.372-.186-.62.496-.372h-.62l-.186-.62-.186.682h-.558l.496.372-.248.558zM6.824 9.614l.496-.31.558.31-.248-.558.558-.372h-.62l-.248-.62-.186.62h-.62l.558.372zM10.358 9.614l.496-.31.496.31-.124-.558.496-.372h-.682l-.186-.62-.124.62h-.682l.496.372zM13.892 9.614l.558-.31.496.31-.248-.558.558-.372h-.62l-.186-.62-.248.62h-.62l.558.372zM3.29 12.9l.496-.372.558.372-.186-.62.496-.372h-.62l-.248-.558-.186.558h-.62l.558.372zM6.824 12.9l.496-.372.558.372-.248-.62.558-.372h-.62l-.248-.558-.186.558h-.62l.558.372zM10.358 12.9l.496-.372.496.372-.124-.62.496-.372h-.682l-.186-.558-.124.558h-.682l.496.372zM13.892 12.9l.558-.372.496.372-.248-.62.558-.372h-.62l-.186-.558-.248.558h-.62l.558.372zM3.29 16.124l.496-.372.558.372-.186-.62.496-.31h-.62l-.248-.62-.186.62h-.62l.558.31zM6.824 16.124l.496-.372.558.372-.248-.62.558-.31h-.62l-.248-.62-.186.62h-.62l.558.31zM10.358 16.124l.496-.372.496.372-.124-.62.496-.31h-.682l-.186-.62-.124.62h-.682l.496.31zM13.892 16.124l.558-.372.496.372-.248-.62.558-.31h-.62l-.186-.62-.248.62h-.62l.558.31zM1.554 14.512l.496-.372.496.372-.186-.62.496-.372h-.62l-.186-.62-.186.62h-.558v.062l.434.372-.186.558zM5.088 14.512l.496-.372.496.372-.186-.62.496-.31h-.62l-.186-.62-.186.558h-.62l.496.434zM8.622 14.512l.496-.372.496.372-.186-.62.496-.31h-.62l-.186-.62-.186.558h-.62l.496.434zM12.156 14.512l.496-.372.496.372-.186-.62.496-.31h-.62l-.186-.62-.186.558h-.62l.496.434zM2.546 11.288l-.186-.62.496-.372h-.62c-.062.186-.186.434-.248.62l.062-.062.496.434zM5.088 11.288l.496-.372.496.372-.186-.62.496-.372h-.62l-.186-.558-.186.558h-.62l.496.372zM8.622 11.288l.496-.372.496.372-.186-.62.496-.372h-.62l-.186-.558-.186.558h-.62l.496.372zM12.156 11.288l.496-.372.496.372-.186-.62.496-.372h-.62l-.186-.558-.186.558h-.62l.496.372zM5.088 8.002l.496-.372.496.372-.186-.558.496-.372h-.62l-.186-.62-.186.62h-.62l.496.372zM8.622 8.002l.496-.372.496.372-.186-.558.496-.372h-.62l-.186-.62-.186.62h-.62l.496.372zM12.156 8.002l.496-.372.496.372-.186-.558.496-.372h-.62l-.186-.62-.186.62h-.62l.496.372zM8.622 4.778l.496-.372.496.372-.186-.62.496-.31h-.62l-.186-.62-.186.62h-.62l.496.31zM12.156 4.778l.496-.372.496.372-.186-.62.496-.31h-.62l-.186-.62-.186.62h-.62l.496.31z"/><path fill="#cccccb" d="M31.5 16C31.5 7.444 24.556.5 16 .5S.5 7.444.5 16 7.444 31.5 16 31.5 31.5 24.556 31.5 16zM3.6 24.184c-.496-.744-.93-1.55-1.302-2.356-.31-.744-.558-1.55-.806-2.356-.186-.744-.31-1.55-.372-2.356V16c0-.806.062-1.612.186-2.418v-.062c.124-.93.372-1.798.682-2.604.062-.186.186-.434.248-.62.248-.558.496-1.116.806-1.612 1.612-2.852 4.154-5.084 7.13-6.386.062-.062.124-.062.248-.062.124-.062.186-.062.31-.124.062-.062.186-.062.248-.124A14.727 14.727 0 0116 1.12c2.666 0 5.146.682 7.254 1.922a13.138 13.138 0 013.162 2.356c.744.682 1.364 1.488 1.984 2.356.496.744.93 1.55 1.302 2.356.31.744.62 1.55.806 2.356.186.744.31 1.55.372 2.356.062.372.062.806.062 1.24 0 .372 0 .744-.062 1.116a14.372 14.372 0 01-.372 2.356c-.186.806-.434 1.612-.806 2.356a17.463 17.463 0 01-1.302 2.356 13.89 13.89 0 01-1.922 2.356c-.93.93-1.922 1.674-3.1 2.356-2.17 1.24-4.712 1.984-7.378 1.984s-5.208-.744-7.378-1.984a14.13 14.13 0 01-3.1-2.356A14.318 14.318 0 013.6 24.184z"/></svg>